<svg width="2070" height="896" xmlns="http://www.w3.org/2000/svg" xmlns:xlink="http://www.w3.org/1999/xlink" xml:space="preserve" overflow="hidden"><g transform="translate(-67 -120)"><rect x="69.4999" y="674.5" width="198" height="161" stroke="#2B4719" stroke-width="4.58333" stroke-miterlimit="8" fill="#70AD47"/><text fill="#FFFFFF" font-family="Calibri,Calibri_MSFontService,sans-serif" font-weight="400" font-size="55" transform="matrix(1 0 0 1 105.446 739)">Can 1 </text><text fill="#FFFFFF" font-family="Segoe UI Symbol,Segoe UI Symbol_MSFontService,sans-serif" font-weight="400" font-size="55" transform="matrix(1 0 0 1 148.139 806)">⏬</text><rect x="69.4999" y="490.5" width="198" height="161" stroke="#2B4719" stroke-width="4.58333" stroke-miterlimit="8" fill="#70AD47"/><text fill="#FFFFFF" font-family="Calibri,Calibri_MSFontService,sans-serif" font-weight="400" font-size="55" transform="matrix(1 0 0 1 105.446 555)">Can 2 </text><text fill="#FFFFFF" font-family="Segoe UI Symbol,Segoe UI Symbol_MSFontService,sans-serif" font-weight="400" font-size="55" transform="matrix(1 0 0 1 148.139 622)">⏬</text><rect x="69.4999" y="306.5" width="198" height="161" stroke="#2B4719" stroke-width="4.58333" stroke-miterlimit="8" fill="#70AD47"/><text fill="#FFFFFF" font-family="Calibri,Calibri_MSFontService,sans-serif" font-weight="400" font-size="55" transform="matrix(1 0 0 1 105.445 372)">Can 3 </text><text fill="#FFFFFF" font-family="Segoe UI Symbol,Segoe UI Symbol_MSFontService,sans-serif" font-weight="400" font-size="55" transform="matrix(1 0 0 1 148.139 439)">⏬</text><rect x="69.4999" y="122.5" width="198" height="161" stroke="#2B4719" stroke-width="4.58333" stroke-miterlimit="8" fill="#70AD47"/><text fill="#FFFFFF" font-family="Calibri,Calibri_MSFontService,sans-serif" font-weight="400" font-size="55" transform="matrix(1 0 0 1 105.445 188)">Can 4 </text><text fill="#FFFFFF" font-family="Segoe UI Symbol,Segoe UI Symbol_MSFontService,sans-serif" font-weight="400" font-size="55" transform="matrix(1 0 0 1 148.139 255)">⏬</text><rect x="300.5" y="674.5" width="197" height="161" stroke="#172C51" stroke-width="4.58333" stroke-miterlimit="8" fill="#4472C4"/><text fill="#FFFFFF" font-family="Calibri,Calibri_MSFontService,sans-serif" font-weight="400" font-size="55" transform="matrix(1 0 0 1 372.606 739)">JD </text><text fill="#FFFFFF" font-family="Segoe UI Symbol,Segoe UI Symbol_MSFontService,sans-serif" font-weight="400" font-size="55" transform="matrix(1 0 0 1 378.633 806)">⏬</text><rect x="300.5" y="490.5" width="197" height="161" stroke="#434343" stroke-width="4.58333" stroke-miterlimit="8" fill="#A5A5A5"/><text fill="#FFFFFF" font-family="Calibri,Calibri_MSFontService,sans-serif" font-weight="400" font-size="55" transform="matrix(1 0 0 1 345.106 555)">AD 1 </text><text fill="#FFFFFF" font-family="Segoe UI Symbol,Segoe UI Symbol_MSFontService,sans-serif" font-weight="400" font-size="55" transform="matrix(1 0 0 1 378.633 622)">⏬</text><rect x="300.5" y="306.5" width="197" height="161" stroke="#434343" stroke-width="4.58333" stroke-miterlimit="8" fill="#A5A5A5"/><text fill="#FFFFFF" font-family="Calibri,Calibri_MSFontService,sans-serif" font-weight="400" font-size="55" transform="matrix(1 0 0 1 345.105 372)">AD 2 </text><text fill="#FFFFFF" font-family="Segoe UI Symbol,Segoe UI Symbol_MSFontService,sans-serif" font-weight="400" font-size="55" transform="matrix(1 0 0 1 378.632 439)">⏬</text><rect x="300.5" y="128.5" width="197" height="160" stroke="#172C51" stroke-width="4.58333" stroke-miterlimit="8" fill="#4472C4"/><text fill="#FFFFFF" font-family="Calibri,Calibri_MSFontService,sans-serif" font-weight="400" font-size="55" transform="matrix(1 0 0 1 368.881 193)">SD </text><text fill="#FFFFFF" font-family="Segoe UI Symbol,Segoe UI Symbol_MSFontService,sans-serif" font-weight="400" font-size="55" transform="matrix(1 0 0 1 378.621 260)">⏬</text><rect x="879.5" y="640.5" width="198" height="160" stroke="#2B4719" stroke-width="4.58333" stroke-miterlimit="8" fill="#70AD47"/><text fill="#FFFFFF" font-family="Calibri,Calibri_MSFontService,sans-serif" font-weight="400" font-size="55" transform="matrix(1 0 0 1 915.791 705)">Can 1 </text><text fill="#FFFFFF" font-family="Segoe UI Symbol,Segoe UI Symbol_MSFontService,sans-serif" font-weight="400" font-size="55" transform="matrix(1 0 0 1 958.484 772)">⏫</text><rect x="1110.5" y="559.5" width="198" height="161" stroke="#2B4719" stroke-width="4.58333" stroke-miterlimit="8" fill="#70AD47"/><text fill="#FFFFFF" font-family="Calibri,Calibri_MSFontService,sans-serif" font-weight="400" font-size="55" transform="matrix(1 0 0 1 1146.28 625)">Can 2 </text><text fill="#FFFFFF" font-family="Segoe UI Symbol,Segoe UI Symbol_MSFontService,sans-serif" font-weight="400" font-size="55" transform="matrix(1 0 0 1 1188.98 692)">⏬</text><rect x="1110.5" y="376.5" width="198" height="160" stroke="#2B4719" stroke-width="4.58333" stroke-miterlimit="8" fill="#70AD47"/><text fill="#FFFFFF" font-family="Calibri,Calibri_MSFontService,sans-serif" font-weight="400" font-size="55" transform="matrix(1 0 0 1 1146.28 441)">Can 3 </text><text fill="#FFFFFF" font-family="Segoe UI Symbol,Segoe UI Symbol_MSFontService,sans-serif" font-weight="400" font-size="55" transform="matrix(1 0 0 1 1188.98 508)">⏬</text><rect x="1110.5" y="192.5" width="198" height="160" stroke="#2B4719" stroke-width="4.58333" stroke-miterlimit="8" fill="#70AD47"/><text fill="#FFFFFF" font-family="Calibri,Calibri_MSFontService,sans-serif" font-weight="400" font-size="55" transform="matrix(1 0 0 1 1146.28 257)">Can 4 </text><text fill="#FFFFFF" font-family="Segoe UI Symbol,Segoe UI Symbol_MSFontService,sans-serif" font-weight="400" font-size="55" transform="matrix(1 0 0 1 1188.98 324)">⏬</text><rect x="665.5" y="640.5" width="198" height="160" stroke="#172C51" stroke-width="4.58333" stroke-miterlimit="8" fill="#4472C4"/><text fill="#FFFFFF" font-family="Calibri,Calibri_MSFontService,sans-serif" font-weight="400" font-size="55" transform="matrix(1 0 0 1 738.427 705)">JD </text><text fill="#FFFFFF" font-family="Segoe UI Symbol,Segoe UI Symbol_MSFontService,sans-serif" font-weight="400" font-size="55" transform="matrix(1 0 0 1 744.455 772)">⏫</text><rect x="1340.5" y="559.5" width="198" height="161" stroke="#434343" stroke-width="4.58333" stroke-miterlimit="8" fill="#A5A5A5"/><text fill="#FFFFFF" font-family="Calibri,Calibri_MSFontService,sans-serif" font-weight="400" font-size="55" transform="matrix(1 0 0 1 1385.94 625)">AD 1 </text><text fill="#FFFFFF" font-family="Segoe UI Symbol,Segoe UI Symbol_MSFontService,sans-serif" font-weight="400" font-size="55" transform="matrix(1 0 0 1 1419.47 692)">⏬</text><rect x="1340.5" y="376.5" width="198" height="160" stroke="#434343" stroke-width="4.58333" stroke-miterlimit="8" fill="#A5A5A5"/><text fill="#FFFFFF" font-family="Calibri,Calibri_MSFontService,sans-serif" font-weight="400" font-size="55" transform="matrix(1 0 0 1 1385.94 441)">AD 2 </text><text fill="#FFFFFF" font-family="Segoe UI Symbol,Segoe UI Symbol_MSFontService,sans-serif" font-weight="400" font-size="55" transform="matrix(1 0 0 1 1419.47 508)">⏬</text><rect x="1340.5" y="197.5" width="198" height="160" stroke="#172C51" stroke-width="4.58333" stroke-miterlimit="8" fill="#4472C4"/><text fill="#FFFFFF" font-family="Calibri,Calibri_MSFontService,sans-serif" font-weight="400" font-size="55" transform="matrix(1 0 0 1 1409.72 262)">SD </text><text fill="#FFFFFF" font-family="Segoe UI Symbol,Segoe UI Symbol_MSFontService,sans-serif" font-weight="400" font-size="55" transform="matrix(1 0 0 1 1419.46 329)">⏬</text><path d="M1324.5 1013.5 965.649 1013.5C923.364 1013.5 889.086 979.222 889.086 936.938L889.086 892.127 873.5 892.127 900.462 838.5 927.424 892.127 911.838 892.127 911.838 936.938C911.838 966.656 935.93 990.748 965.649 990.748L1324.5 990.748Z" stroke="#172C51" stroke-width="4.58333" stroke-miterlimit="8" fill="#4472C4" fill-rule="evenodd"/><path d="M0 0 0.000360892 228.418" stroke="#4472C4" stroke-width="22.9167" stroke-miterlimit="8" fill="none" fill-rule="evenodd" transform="matrix(1 0 0 -1 1323.5 1013.92)"/><rect x="1706.5" y="681.5" width="197" height="161" stroke="#2B4719" stroke-width="4.58333" stroke-miterlimit="8" fill="#70AD47"/><text fill="#FFFFFF" font-family="Calibri,Calibri_MSFontService,sans-serif" font-weight="400" font-size="55" transform="matrix(1 0 0 1 1741.89 746)">Can 4 </text><text fill="#FFFFFF" font-family="Segoe UI Symbol,Segoe UI Symbol_MSFontService,sans-serif" font-weight="400" font-size="55" transform="matrix(1 0 0 1 1783.72 813)">⏪</text><rect x="1706.5" y="497.5" width="197" height="161" stroke="#2B4719" stroke-width="4.58333" stroke-miterlimit="8" fill="#70AD47"/><text fill="#FFFFFF" font-family="Calibri,Calibri_MSFontService,sans-serif" font-weight="400" font-size="55" transform="matrix(1 0 0 1 1741.89 562)">Can 3 </text><text fill="#FFFFFF" font-family="Segoe UI Symbol,Segoe UI Symbol_MSFontService,sans-serif" font-weight="400" font-size="55" transform="matrix(1 0 0 1 1783.72 630)">⏪</text><rect x="1706.5" y="313.5" width="197" height="161" stroke="#2B4719" stroke-width="4.58333" stroke-miterlimit="8" fill="#70AD47"/><text fill="#FFFFFF" font-family="Calibri,Calibri_MSFontService,sans-serif" font-weight="400" font-size="55" transform="matrix(1 0 0 1 1741.89 379)">Can 2 </text><text fill="#FFFFFF" font-family="Segoe UI Symbol,Segoe UI Symbol_MSFontService,sans-serif" font-weight="400" font-size="55" transform="matrix(1 0 0 1 1783.72 446)">⏪</text><rect x="1706.5" y="130.5" width="197" height="160" stroke="#2B4719" stroke-width="4.58333" stroke-miterlimit="8" fill="#70AD47"/><text fill="#FFFFFF" font-family="Calibri,Calibri_MSFontService,sans-serif" font-weight="400" font-size="55" transform="matrix(1 0 0 1 1741.89 195)">Can 1 </text><text fill="#FFFFFF" font-family="Segoe UI Symbol,Segoe UI Symbol_MSFontService,sans-serif" font-weight="400" font-size="55" transform="matrix(1 0 0 1 1783.72 262)">⏪</text><rect x="1936.5" y="681.5" width="198" height="161" stroke="#172C51" stroke-width="4.58333" stroke-miterlimit="8" fill="#4472C4"/><text fill="#FFFFFF" font-family="Calibri,Calibri_MSFontService,sans-serif" font-weight="400" font-size="55" transform="matrix(1 0 0 1 2005.33 746)">SD </text><text fill="#FFFFFF" font-family="Segoe UI Symbol,Segoe UI Symbol_MSFontService,sans-serif" font-weight="400" font-size="55" transform="matrix(1 0 0 1 2014.2 813)">⏪</text><rect x="1936.5" y="497.5" width="198" height="161" stroke="#434343" stroke-width="4.58333" stroke-miterlimit="8" fill="#A5A5A5"/><text fill="#FFFFFF" font-family="Calibri,Calibri_MSFontService,sans-serif" font-weight="400" font-size="55" transform="matrix(1 0 0 1 1981.55 562)">AD 1 </text><text fill="#FFFFFF" font-family="Segoe UI Symbol,Segoe UI Symbol_MSFontService,sans-serif" font-weight="400" font-size="55" transform="matrix(1 0 0 1 2014.21 630)">⏪</text><rect x="1936.5" y="313.5" width="198" height="161" stroke="#434343" stroke-width="4.58333" stroke-miterlimit="8" fill="#A5A5A5"/><text fill="#FFFFFF" font-family="Calibri,Calibri_MSFontService,sans-serif" font-weight="400" font-size="55" transform="matrix(1 0 0 1 1981.55 379)">AD 2 </text><text fill="#FFFFFF" font-family="Segoe UI Symbol,Segoe UI Symbol_MSFontService,sans-serif" font-weight="400" font-size="55" transform="matrix(1 0 0 1 2014.21 446)">⏪</text><rect x="1936.5" y="135.5" width="198" height="160" stroke="#172C51" stroke-width="4.58333" stroke-miterlimit="8" fill="#4472C4"/><text fill="#FFFFFF" font-family="Calibri,Calibri_MSFontService,sans-serif" font-weight="400" font-size="55" transform="matrix(1 0 0 1 2009.05 200)">JD </text><text fill="#FFFFFF" font-family="Segoe UI Symbol,Segoe UI Symbol_MSFontService,sans-serif" font-weight="400" font-size="55" transform="matrix(1 0 0 1 2014.21 267)">⏪</text></g></svg>