<svg width="1150" height="1249" xmlns="http://www.w3.org/2000/svg" xmlns:xlink="http://www.w3.org/1999/xlink" xml:space="preserve" overflow="hidden"><g transform="translate(-799 -244)"><rect x="1518.5" y="991.5" width="198" height="160" stroke="#2B4719" stroke-width="4.58333" stroke-miterlimit="8" fill="#70AD47"/><text fill="#FFFFFF" font-family="Calibri,Calibri_MSFontService,sans-serif" font-weight="400" font-size="55" transform="matrix(1 0 0 1 1554.75 1056)">Can 4 </text><text fill="#FFFFFF" font-family="Segoe UI Symbol,Segoe UI Symbol_MSFontService,sans-serif" font-weight="400" font-size="55" transform="matrix(1 0 0 1 1596.57 1123)">⏪</text><rect x="1518.5" y="807.5" width="198" height="161" stroke="#2B4719" stroke-width="4.58333" stroke-miterlimit="8" fill="#70AD47"/><text fill="#FFFFFF" font-family="Calibri,Calibri_MSFontService,sans-serif" font-weight="400" font-size="55" transform="matrix(1 0 0 1 1554.75 872)">Can 3 </text><text fill="#FFFFFF" font-family="Segoe UI Symbol,Segoe UI Symbol_MSFontService,sans-serif" font-weight="400" font-size="55" transform="matrix(1 0 0 1 1596.57 939)">⏪</text><rect x="1518.5" y="623.5" width="198" height="161" stroke="#2B4719" stroke-width="4.58333" stroke-miterlimit="8" fill="#70AD47"/><text fill="#FFFFFF" font-family="Calibri,Calibri_MSFontService,sans-serif" font-weight="400" font-size="55" transform="matrix(1 0 0 1 1554.75 688)">Can 2 </text><text fill="#FFFFFF" font-family="Segoe UI Symbol,Segoe UI Symbol_MSFontService,sans-serif" font-weight="400" font-size="55" transform="matrix(1 0 0 1 1596.57 755)">⏪</text><rect x="1518.5" y="439.5" width="198" height="161" stroke="#2B4719" stroke-width="4.58333" stroke-miterlimit="8" fill="#70AD47"/><text fill="#FFFFFF" font-family="Calibri,Calibri_MSFontService,sans-serif" font-weight="400" font-size="55" transform="matrix(1 0 0 1 1554.75 505)">Can 1 </text><text fill="#FFFFFF" font-family="Segoe UI Symbol,Segoe UI Symbol_MSFontService,sans-serif" font-weight="400" font-size="55" transform="matrix(1 0 0 1 1596.57 572)">⏪</text><rect x="1749.5" y="991.5" width="197" height="160" stroke="#172C51" stroke-width="4.58333" stroke-miterlimit="8" fill="#4472C4"/><text fill="#FFFFFF" font-family="Calibri,Calibri_MSFontService,sans-serif" font-weight="400" font-size="55" transform="matrix(1 0 0 1 1818.19 1056)">SD </text><text fill="#FFFFFF" font-family="Segoe UI Symbol,Segoe UI Symbol_MSFontService,sans-serif" font-weight="400" font-size="55" transform="matrix(1 0 0 1 1827.06 1123)">⏪</text><rect x="1749.5" y="807.5" width="197" height="161" stroke="#434343" stroke-width="4.58333" stroke-miterlimit="8" fill="#A5A5A5"/><text fill="#FFFFFF" font-family="Calibri,Calibri_MSFontService,sans-serif" font-weight="400" font-size="55" transform="matrix(1 0 0 1 1794.41 872)">AD 1 </text><text fill="#FFFFFF" font-family="Segoe UI Symbol,Segoe UI Symbol_MSFontService,sans-serif" font-weight="400" font-size="55" transform="matrix(1 0 0 1 1827.07 939)">⏪</text><rect x="1749.5" y="623.5" width="197" height="161" stroke="#434343" stroke-width="4.58333" stroke-miterlimit="8" fill="#A5A5A5"/><text fill="#FFFFFF" font-family="Calibri,Calibri_MSFontService,sans-serif" font-weight="400" font-size="55" transform="matrix(1 0 0 1 1794.41 688)">AD 2 </text><text fill="#FFFFFF" font-family="Segoe UI Symbol,Segoe UI Symbol_MSFontService,sans-serif" font-weight="400" font-size="55" transform="matrix(1 0 0 1 1827.07 755)">⏪</text><rect x="983.5" y="247.5" width="197" height="160" stroke="#172C51" stroke-width="4.58333" stroke-miterlimit="8" fill="#4472C4"/><text fill="#FFFFFF" font-family="Calibri,Calibri_MSFontService,sans-serif" font-weight="400" font-size="55" transform="matrix(1 0 0 1 1055.53 312)">JD </text><text fill="#FFFFFF" font-family="Segoe UI Symbol,Segoe UI Symbol_MSFontService,sans-serif" font-weight="400" font-size="55" transform="matrix(1 0 0 1 1061.56 379)">⏬</text><path d="M0 682 0 325.423C-4.59601e-14 160.635 133.587 27.0482 298.375 27.0482L655.962 27.0482 655.962 0 722 39.1265 655.962 78.2531 655.962 51.2049 298.375 51.2049C146.928 51.2049 24.1559 173.977 24.1559 325.424L24.1567 682Z" stroke="#172C51" stroke-width="4.58333" stroke-miterlimit="8" fill="#4472C4" fill-rule="evenodd" transform="matrix(6.12323e-17 1 1 -6.12323e-17 803.5 500.5)"/><rect x="983.5" y="1315.5" width="197" height="160" stroke="#64310F" stroke-width="4.58333" stroke-miterlimit="8" fill="#ED7D31"/><text fill="#FFFFFF" font-family="Calibri,Calibri_MSFontService,sans-serif" font-weight="400" font-size="55" transform="matrix(1 0 0 1 1033.47 1380)">WM</text><text fill="#FFFFFF" font-family="Segoe UI Symbol,Segoe UI Symbol_MSFontService,sans-serif" font-weight="400" font-size="55" transform="matrix(1 0 0 1 1061.54 1447)">⏫</text><path d="M0 519 0 247.669C-6.77307e-14 122.266 101.659 20.6069 227.062 20.6069L471.147 20.6069 471.147 0 532 30.8699 471.147 61.7403 471.147 41.1334 227.062 41.1334C112.996 41.1334 20.5266 133.603 20.5266 247.669L20.5266 519Z" stroke="#172C51" stroke-width="4.58333" stroke-miterlimit="8" fill="#4472C4" fill-rule="evenodd" transform="matrix(6.12323e-17 1 1 -6.12323e-17 966.5 690.5)"/><path d="M0 352 0 162.502C-2.24072e-14 80.1078 66.7934 13.3143 149.187 13.3143L280.039 13.3143 280.039 0 341 24.784 280.039 49.5679 280.039 36.2532 149.187 36.2532C79.4623 36.2532 22.9389 92.7766 22.9389 162.502L22.9389 352Z" stroke="#172C51" stroke-width="4.58333" stroke-miterlimit="8" fill="#4472C4" fill-rule="evenodd" transform="matrix(6.12323e-17 1 1 -6.12323e-17 1133.5 881.5)"/><path d="M0 221 0 92.1487C-1.40681e-14 49.8644 34.2782 15.5862 76.5625 15.5862L121.373 15.5865 121.373 0 175 26.9622 121.373 53.9245 121.373 38.338 76.5625 38.338C46.8437 38.338 22.7518 62.4299 22.7518 92.1487L22.7518 221Z" stroke="#172C51" stroke-width="4.58333" stroke-miterlimit="8" fill="#4472C4" fill-rule="evenodd" transform="matrix(6.12323e-17 1 1 -6.12323e-17 1264.5 1047.5)"/></g></svg>