<svg width="938" height="1007" xmlns="http://www.w3.org/2000/svg" xmlns:xlink="http://www.w3.org/1999/xlink" xml:space="preserve" overflow="hidden"><g transform="translate(-3169 -1329)"><rect x="3676.5" y="1898.5" width="198" height="161" stroke="#2B4719" stroke-width="4.58333" stroke-miterlimit="8" fill="#70AD47"/><text fill="#FFFFFF" font-family="Calibri,Calibri_MSFontService,sans-serif" font-weight="400" font-size="55" transform="matrix(1 0 0 1 3712.27 1964)">Can 4 </text><text fill="#FFFFFF" font-family="Segoe UI Symbol,Segoe UI Symbol_MSFontService,sans-serif" font-weight="400" font-size="55" transform="matrix(1 0 0 1 3754.09 2031)">⏪</text><rect x="3677.5" y="1711.5" width="197" height="160" stroke="#2B4719" stroke-width="4.58333" stroke-miterlimit="8" fill="#70AD47"/><text fill="#FFFFFF" font-family="Calibri,Calibri_MSFontService,sans-serif" font-weight="400" font-size="55" transform="matrix(1 0 0 1 3713.18 1776)">Can 3 </text><text fill="#FFFFFF" font-family="Segoe UI Symbol,Segoe UI Symbol_MSFontService,sans-serif" font-weight="400" font-size="55" transform="matrix(1 0 0 1 3755.01 1843)">⏪</text><rect x="3677.5" y="1523.5" width="197" height="161" stroke="#2B4719" stroke-width="4.58333" stroke-miterlimit="8" fill="#70AD47"/><text fill="#FFFFFF" font-family="Calibri,Calibri_MSFontService,sans-serif" font-weight="400" font-size="55" transform="matrix(1 0 0 1 3713.18 1588)">Can 2 </text><text fill="#FFFFFF" font-family="Segoe UI Symbol,Segoe UI Symbol_MSFontService,sans-serif" font-weight="400" font-size="55" transform="matrix(1 0 0 1 3755.01 1655)">⏪</text><rect x="3677.5" y="1335.5" width="197" height="161" stroke="#2B4719" stroke-width="4.58333" stroke-miterlimit="8" fill="#70AD47"/><text fill="#FFFFFF" font-family="Calibri,Calibri_MSFontService,sans-serif" font-weight="400" font-size="55" transform="matrix(1 0 0 1 3713.18 1401)">Can 1 </text><text fill="#FFFFFF" font-family="Segoe UI Symbol,Segoe UI Symbol_MSFontService,sans-serif" font-weight="400" font-size="55" transform="matrix(1 0 0 1 3755.01 1468)">⏪</text><rect x="3906.5" y="1898.5" width="198" height="161" stroke="#172C51" stroke-width="4.58333" stroke-miterlimit="8" fill="#4472C4"/><text fill="#FFFFFF" font-family="Calibri,Calibri_MSFontService,sans-serif" font-weight="400" font-size="55" transform="matrix(1 0 0 1 3975.24 1964)">SD </text><text fill="#FFFFFF" font-family="Segoe UI Symbol,Segoe UI Symbol_MSFontService,sans-serif" font-weight="400" font-size="55" transform="matrix(1 0 0 1 3984.1 2031)">⏪</text><rect x="3906.5" y="1523.5" width="198" height="161" stroke="#434343" stroke-width="4.58333" stroke-miterlimit="8" fill="#A5A5A5"/><text fill="#FFFFFF" font-family="Calibri,Calibri_MSFontService,sans-serif" font-weight="400" font-size="55" transform="matrix(1 0 0 1 3951.46 1588)">AD 1 </text><text fill="#FFFFFF" font-family="Segoe UI Symbol,Segoe UI Symbol_MSFontService,sans-serif" font-weight="400" font-size="55" transform="matrix(1 0 0 1 3984.12 1655)">⏪</text><rect x="3906.5" y="1711.5" width="198" height="160" stroke="#434343" stroke-width="4.58333" stroke-miterlimit="8" fill="#A5A5A5"/><text fill="#FFFFFF" font-family="Calibri,Calibri_MSFontService,sans-serif" font-weight="400" font-size="55" transform="matrix(1 0 0 1 3951.46 1776)">AD 2 </text><text fill="#FFFFFF" font-family="Segoe UI Symbol,Segoe UI Symbol_MSFontService,sans-serif" font-weight="400" font-size="55" transform="matrix(1 0 0 1 3984.12 1843)">⏪</text><rect x="3420.5" y="1331.5" width="198" height="161" stroke="#172C51" stroke-width="4.58333" stroke-miterlimit="8" fill="#4472C4"/><text fill="#FFFFFF" font-family="Calibri,Calibri_MSFontService,sans-serif" font-weight="400" font-size="55" transform="matrix(1 0 0 1 3493.07 1397)">JD </text><text fill="#FFFFFF" font-family="Segoe UI Symbol,Segoe UI Symbol_MSFontService,sans-serif" font-weight="400" font-size="55" transform="matrix(1 0 0 1 3498.22 1464)">⏩</text><path d="M3496.5 1543 3516 1523.5 3535.5 1543 3525.75 1543 3525.75 1996 3535.5 1996 3516 2015.5 3496.5 1996 3506.25 1996 3506.25 1543Z" stroke="#172C51" stroke-width="4.58333" stroke-miterlimit="8" fill="#4472C4" fill-rule="evenodd"/><rect x="3171.5" y="2158.5" width="198" height="161" stroke="#64310F" stroke-width="4.58333" stroke-miterlimit="8" fill="#ED7D31"/><text fill="#FFFFFF" font-family="Calibri,Calibri_MSFontService,sans-serif" font-weight="400" font-size="55" transform="matrix(1 0 0 1 3222.06 2224)">WM</text><text fill="#FFFFFF" font-family="Segoe UI Symbol,Segoe UI Symbol_MSFontService,sans-serif" font-weight="400" font-size="55" transform="matrix(1 0 0 1 3250.14 2291)">⏫</text></g></svg>