<svg width="1263" height="550" xmlns="http://www.w3.org/2000/svg" xmlns:xlink="http://www.w3.org/1999/xlink" xml:space="preserve" overflow="hidden"><g transform="translate(-783 -1847)"><rect x="1630.5" y="2040.5" width="197" height="160" stroke="#2B4719" stroke-width="4.58333" stroke-miterlimit="8" fill="#70AD47"/><text fill="#FFFFFF" font-family="Calibri,Calibri_MSFontService,sans-serif" font-weight="400" font-size="55" transform="matrix(1 0 0 1 1666.25 2105)">Can 4 </text><text fill="#FFFFFF" font-family="Segoe UI Symbol,Segoe UI Symbol_MSFontService,sans-serif" font-weight="400" font-size="55" transform="matrix(1 0 0 1 1708.95 2172)">⏬</text><rect x="1419.5" y="2040.5" width="198" height="160" stroke="#2B4719" stroke-width="4.58333" stroke-miterlimit="8" fill="#70AD47"/><text fill="#FFFFFF" font-family="Calibri,Calibri_MSFontService,sans-serif" font-weight="400" font-size="55" transform="matrix(1 0 0 1 1455.3 2105)">Can 3 </text><text fill="#FFFFFF" font-family="Segoe UI Symbol,Segoe UI Symbol_MSFontService,sans-serif" font-weight="400" font-size="55" transform="matrix(1 0 0 1 1498 2172)">⏬</text><rect x="1210.5" y="2040.5" width="198" height="160" stroke="#2B4719" stroke-width="4.58333" stroke-miterlimit="8" fill="#70AD47"/><text fill="#FFFFFF" font-family="Calibri,Calibri_MSFontService,sans-serif" font-weight="400" font-size="55" transform="matrix(1 0 0 1 1246.28 2105)">Can 2 </text><text fill="#FFFFFF" font-family="Segoe UI Symbol,Segoe UI Symbol_MSFontService,sans-serif" font-weight="400" font-size="55" transform="matrix(1 0 0 1 1288.97 2172)">⏬</text><rect x="1001.5" y="2040.5" width="197" height="160" stroke="#2B4719" stroke-width="4.58333" stroke-miterlimit="8" fill="#70AD47"/><text fill="#FFFFFF" font-family="Calibri,Calibri_MSFontService,sans-serif" font-weight="400" font-size="55" transform="matrix(1 0 0 1 1037.25 2105)">Can 1 </text><text fill="#FFFFFF" font-family="Segoe UI Symbol,Segoe UI Symbol_MSFontService,sans-serif" font-weight="400" font-size="55" transform="matrix(1 0 0 1 1079.94 2172)">⏬</text><rect x="1846.5" y="2040.5" width="197" height="160" stroke="#172C51" stroke-width="4.58333" stroke-miterlimit="8" fill="#4472C4"/><text fill="#FFFFFF" font-family="Calibri,Calibri_MSFontService,sans-serif" font-weight="400" font-size="55" transform="matrix(1 0 0 1 1915.15 2105)">SD </text><text fill="#FFFFFF" font-family="Segoe UI Symbol,Segoe UI Symbol_MSFontService,sans-serif" font-weight="400" font-size="55" transform="matrix(1 0 0 1 1924.02 2172)">⏪</text><rect x="1210.5" y="1852.5" width="198" height="161" stroke="#434343" stroke-width="4.58333" stroke-miterlimit="8" fill="#A5A5A5"/><text fill="#FFFFFF" font-family="Calibri,Calibri_MSFontService,sans-serif" font-weight="400" font-size="55" transform="matrix(1 0 0 1 1255.44 1917)">AD 1 </text><text fill="#FFFFFF" font-family="Segoe UI Symbol,Segoe UI Symbol_MSFontService,sans-serif" font-weight="400" font-size="55" transform="matrix(1 0 0 1 1288.97 1984)">⏬</text><rect x="1419.5" y="1850.5" width="198" height="160" stroke="#434343" stroke-width="4.58333" stroke-miterlimit="8" fill="#A5A5A5"/><text fill="#FFFFFF" font-family="Calibri,Calibri_MSFontService,sans-serif" font-weight="400" font-size="55" transform="matrix(1 0 0 1 1464.47 1915)">AD 2 </text><text fill="#FFFFFF" font-family="Segoe UI Symbol,Segoe UI Symbol_MSFontService,sans-serif" font-weight="400" font-size="55" transform="matrix(1 0 0 1 1498 1982)">⏬</text><rect x="785.5" y="2040.5" width="198" height="160" stroke="#172C51" stroke-width="4.58333" stroke-miterlimit="8" fill="#4472C4"/><text fill="#FFFFFF" font-family="Calibri,Calibri_MSFontService,sans-serif" font-weight="400" font-size="55" transform="matrix(1 0 0 1 857.963 2105)">JD </text><text fill="#FFFFFF" font-family="Segoe UI Symbol,Segoe UI Symbol_MSFontService,sans-serif" font-weight="400" font-size="55" transform="matrix(1 0 0 1 863.119 2172)">⏩</text><rect x="1305.5" y="2220.5" width="198" height="160" stroke="#64310F" stroke-width="4.58333" stroke-miterlimit="8" fill="#ED7D31"/><text fill="#FFFFFF" font-family="Calibri,Calibri_MSFontService,sans-serif" font-weight="400" font-size="55" transform="matrix(1 0 0 1 1355.92 2285)">WM</text><text fill="#FFFFFF" font-family="Segoe UI Symbol,Segoe UI Symbol_MSFontService,sans-serif" font-weight="400" font-size="55" transform="matrix(1 0 0 1 1384 2352)">⏫</text></g></svg>