<svg width="1070" height="796" xmlns="http://www.w3.org/2000/svg" xmlns:xlink="http://www.w3.org/1999/xlink" xml:space="preserve" overflow="hidden"><g transform="translate(-79 -61)"><rect x="613.5" y="64.5001" width="197" height="160" stroke="#64310F" stroke-width="4.58333" stroke-miterlimit="8" fill="#ED7D31"/><text fill="#FFFFFF" font-family="Calibri,Calibri_MSFontService,sans-serif" font-weight="400" font-size="55" transform="matrix(1 0 0 1 674.642 129)">SW </text><text fill="#FFFFFF" font-family="Segoe UI Symbol,Segoe UI Symbol_MSFontService,sans-serif" font-weight="400" font-size="55" transform="matrix(1 0 0 1 666.278 196)">Ped</text><rect x="300.5" y="604.5" width="197" height="161" stroke="#2B4719" stroke-width="4.58333" stroke-miterlimit="8" fill="#70AD47"/><text fill="#FFFFFF" font-family="Calibri,Calibri_MSFontService,sans-serif" font-weight="400" font-size="55" transform="matrix(1 0 0 1 336.117 670)">Can 1 </text><text fill="#FFFFFF" font-family="Segoe UI Symbol,Segoe UI Symbol_MSFontService,sans-serif" font-weight="400" font-size="55" transform="matrix(1 0 0 1 378.811 737)">⏬</text><rect x="514.5" y="604.5" width="197" height="161" stroke="#2B4719" stroke-width="4.58333" stroke-miterlimit="8" fill="#70AD47"/><text fill="#FFFFFF" font-family="Calibri,Calibri_MSFontService,sans-serif" font-weight="400" font-size="55" transform="matrix(1 0 0 1 550.147 670)">Can 2 </text><text fill="#FFFFFF" font-family="Segoe UI Symbol,Segoe UI Symbol_MSFontService,sans-serif" font-weight="400" font-size="55" transform="matrix(1 0 0 1 592.841 737)">⏬</text><rect x="728.5" y="604.5" width="197" height="161" stroke="#2B4719" stroke-width="4.58333" stroke-miterlimit="8" fill="#70AD47"/><text fill="#FFFFFF" font-family="Calibri,Calibri_MSFontService,sans-serif" font-weight="400" font-size="55" transform="matrix(1 0 0 1 764.177 670)">Can 3 </text><text fill="#FFFFFF" font-family="Segoe UI Symbol,Segoe UI Symbol_MSFontService,sans-serif" font-weight="400" font-size="55" transform="matrix(1 0 0 1 806.871 737)">⏬</text><rect x="942.5" y="604.5" width="197" height="161" stroke="#2B4719" stroke-width="4.58333" stroke-miterlimit="8" fill="#70AD47"/><text fill="#FFFFFF" font-family="Calibri,Calibri_MSFontService,sans-serif" font-weight="400" font-size="55" transform="matrix(1 0 0 1 978.207 670)">Can 4 </text><text fill="#FFFFFF" font-family="Segoe UI Symbol,Segoe UI Symbol_MSFontService,sans-serif" font-weight="400" font-size="55" transform="matrix(1 0 0 1 1020.9 737)">⏬</text><rect x="300.5" y="420.5" width="197" height="161" stroke="#172C51" stroke-width="4.58333" stroke-miterlimit="8" fill="#4472C4"/><text fill="#FFFFFF" font-family="Calibri,Calibri_MSFontService,sans-serif" font-weight="400" font-size="55" transform="matrix(1 0 0 1 372.784 486)">JD </text><text fill="#FFFFFF" font-family="Segoe UI Symbol,Segoe UI Symbol_MSFontService,sans-serif" font-weight="400" font-size="55" transform="matrix(1 0 0 1 378.811 553)">⏬</text><rect x="514.5" y="420.5" width="197" height="161" stroke="#434343" stroke-width="4.58333" stroke-miterlimit="8" fill="#A5A5A5"/><text fill="#FFFFFF" font-family="Calibri,Calibri_MSFontService,sans-serif" font-weight="400" font-size="55" transform="matrix(1 0 0 1 559.314 486)">AD 1 </text><text fill="#FFFFFF" font-family="Segoe UI Symbol,Segoe UI Symbol_MSFontService,sans-serif" font-weight="400" font-size="55" transform="matrix(1 0 0 1 592.841 553)">⏬</text><rect x="728.5" y="420.5" width="197" height="161" stroke="#434343" stroke-width="4.58333" stroke-miterlimit="8" fill="#A5A5A5"/><text fill="#FFFFFF" font-family="Calibri,Calibri_MSFontService,sans-serif" font-weight="400" font-size="55" transform="matrix(1 0 0 1 773.343 486)">AD 2 </text><text fill="#FFFFFF" font-family="Segoe UI Symbol,Segoe UI Symbol_MSFontService,sans-serif" font-weight="400" font-size="55" transform="matrix(1 0 0 1 806.871 553)">⏬</text><rect x="942.5" y="420.5" width="197" height="161" stroke="#172C51" stroke-width="4.58333" stroke-miterlimit="8" fill="#4472C4"/><text fill="#FFFFFF" font-family="Calibri,Calibri_MSFontService,sans-serif" font-weight="400" font-size="55" transform="matrix(1 0 0 1 1011.15 486)">SD </text><text fill="#FFFFFF" font-family="Segoe UI Symbol,Segoe UI Symbol_MSFontService,sans-serif" font-weight="400" font-size="55" transform="matrix(1 0 0 1 1020.89 553)">⏬</text><rect x="81.5" y="603.5" width="198" height="160" stroke="#64310F" stroke-width="4.58333" stroke-miterlimit="8" fill="#ED7D31"/><text fill="#FFFFFF" font-family="Calibri,Calibri_MSFontService,sans-serif" font-weight="400" font-size="55" transform="matrix(1 0 0 1 143.355 668)">SW </text><text fill="#FFFFFF" font-family="Segoe UI Symbol,Segoe UI Symbol_MSFontService,sans-serif" font-weight="400" font-size="55" transform="matrix(1 0 0 1 160.337 735)">⏬</text><path d="M360.005 800.454C321.098 842.501 251.211 841.103 203.908 797.332" stroke="#4472C4" stroke-width="22.9167" stroke-miterlimit="8" fill="none" fill-rule="evenodd"/><path d="M600.071 799.211C561.165 841.257 491.278 839.859 443.974 796.088" stroke="#4472C4" stroke-width="22.9167" stroke-miterlimit="8" fill="none" fill-rule="evenodd"/><path d="M820.804 800.969C781.898 843.015 712.011 841.617 664.707 797.846" stroke="#4472C4" stroke-width="22.9167" stroke-miterlimit="8" fill="none" fill-rule="evenodd"/><path d="M1033.45 802.727C994.548 844.773 924.661 843.375 877.357 799.604" stroke="#4472C4" stroke-width="22.9167" stroke-miterlimit="8" fill="none" fill-rule="evenodd"/></g></svg>